<svg xmlns="http://www.w3.org/2000/svg" xmlns:xlink="http://www.w3.org/1999/xlink" width="500" zoomAndPan="magnify" viewBox="0 0 375 374.999991" height="500" preserveAspectRatio="xMidYMid meet" version="1.0"><defs><g/></defs><rect x="-37.5" width="450" fill="#ffffff" y="-37.499999" height="449.999989" fill-opacity="1"/><rect x="-37.5" width="450" fill="#ffffff" y="-37.499999" height="449.999989" fill-opacity="1"/><g fill="#18181e" fill-opacity="1"><g transform="translate(11.445314, 190.184926)"><g><path d="M 54.6875 -57.625 L 13.140625 -57.625 L 0 0 L 14.28125 0 L 19.59375 -23.265625 L 45.953125 -23.265625 L 48.484375 -34.28125 L 22.125 -34.28125 L 24.984375 -46.859375 L 52.328125 -46.859375 Z M 54.6875 -57.625 "/></g></g></g><g fill="#18181e" fill-opacity="1"><g transform="translate(63.678043, 190.184926)"><g><path d="M 45.296875 -18.78125 C 45.46875 -20.5625 45.625 -22.453125 45.625 -24.328125 C 45.625 -37.390625 37.0625 -43.5 26.28125 -43.5 C 10.125 -43.5 2.359375 -29.953125 2.359375 -19.015625 C 2.359375 -6.046875 11.34375 1.21875 22.859375 1.21875 C 35.1875 1.21875 40.15625 -5.140625 43.671875 -11.015625 L 33.140625 -14.6875 C 31.1875 -10.78125 27.5 -8.484375 23.1875 -8.484375 C 16.65625 -8.484375 14.609375 -13.0625 14.609375 -17.0625 C 14.609375 -17.796875 14.6875 -18.78125 14.6875 -18.78125 Z M 16.328125 -26.6875 C 17.953125 -30.859375 21.0625 -34.6875 26.359375 -34.6875 C 31.5 -34.6875 34.359375 -31.09375 34.359375 -27.1875 L 34.359375 -26.6875 Z M 16.328125 -26.6875 "/></g></g></g><g fill="#18181e" fill-opacity="1"><g transform="translate(114.196898, 190.184926)"><g><path d="M 39.1875 0 C 39.015625 -0.890625 38.9375 -1.46875 38.9375 -1.796875 C 38.9375 -2.203125 39.015625 -3.1875 39.265625 -4.15625 L 44.15625 -25.953125 C 44.96875 -29.390625 44.96875 -30.203125 44.96875 -32.40625 C 44.96875 -37.703125 41.140625 -43.421875 28.25 -43.421875 C 14.53125 -43.421875 8.984375 -38.609375 6.6875 -29.875 C 8.65625 -29.796875 19.265625 -29.46875 19.265625 -29.46875 C 20.078125 -32.8125 22.03125 -35.421875 26.6875 -35.421875 C 27.828125 -35.421875 32.5625 -35.34375 32.5625 -31.1875 C 32.5625 -29.875 32.078125 -27.921875 31.75 -26.6875 C 19.828125 -26.03125 9.71875 -25.546875 4.65625 -20.078125 C 2.359375 -17.625 0.8125 -14.453125 0.8125 -10.6875 C 0.8125 -3.515625 5.546875 1.21875 13.46875 1.21875 C 23.34375 1.21875 26.765625 -4.40625 27.421875 -5.875 C 27.1875 -4.25 26.6875 -2.453125 26.6875 -1.953125 C 26.6875 -1.21875 26.9375 -0.65625 27.09375 0 Z M 29.875 -18.859375 C 28.40625 -11.671875 24.40625 -7.75 18.609375 -7.75 C 13.546875 -7.75 13.46875 -11.265625 13.46875 -12.078125 C 13.46875 -15.421875 17.21875 -18.859375 28.65625 -18.859375 Z M 29.875 -18.859375 "/></g></g></g><g fill="#18181e" fill-opacity="1"><g transform="translate(164.715754, 190.184926)"><g><path d="M 9.46875 -42.03125 L -0.078125 0 L 12.484375 0 L 16.8125 -19.015625 C 17.71875 -22.9375 18.28125 -24.328125 19.515625 -26.203125 C 22.53125 -30.6875 28.15625 -31.5 33.0625 -31.59375 L 35.59375 -42.53125 C 34.765625 -42.609375 33.875 -42.6875 33.0625 -42.6875 C 27.34375 -42.6875 22.53125 -38.6875 20.65625 -35.921875 L 21.953125 -42.03125 Z M 9.46875 -42.03125 "/></g></g></g><g fill="#18181e" fill-opacity="1"><g transform="translate(198.259064, 190.184926)"><g><path d="M 25.625 -57.625 L 12.984375 -57.625 L 0.15625 0 L 12.734375 0 Z M 25.625 -57.625 "/></g></g></g><g fill="#18181e" fill-opacity="1"><g transform="translate(223.314601, 190.184926)"><g><path d="M 45.296875 -18.78125 C 45.46875 -20.5625 45.625 -22.453125 45.625 -24.328125 C 45.625 -37.390625 37.0625 -43.5 26.28125 -43.5 C 10.125 -43.5 2.359375 -29.953125 2.359375 -19.015625 C 2.359375 -6.046875 11.34375 1.21875 22.859375 1.21875 C 35.1875 1.21875 40.15625 -5.140625 43.671875 -11.015625 L 33.140625 -14.6875 C 31.1875 -10.78125 27.5 -8.484375 23.1875 -8.484375 C 16.65625 -8.484375 14.609375 -13.0625 14.609375 -17.0625 C 14.609375 -17.796875 14.6875 -18.78125 14.6875 -18.78125 Z M 16.328125 -26.6875 C 17.953125 -30.859375 21.0625 -34.6875 26.359375 -34.6875 C 31.5 -34.6875 34.359375 -31.09375 34.359375 -27.1875 L 34.359375 -26.6875 Z M 16.328125 -26.6875 "/></g></g></g><g fill="#18181e" fill-opacity="1"><g transform="translate(273.833465, 190.184926)"><g><path d="M 42.53125 -33.21875 C 40.484375 -37.140625 35.828125 -43.5 22.859375 -43.5 C 9.71875 -43.5 4.15625 -36.40625 4.15625 -30.28125 C 4.15625 -22.203125 11.828125 -19.421875 16.484375 -17.953125 L 20.8125 -16.5625 C 24.25 -15.515625 26.453125 -14.78125 26.453125 -12.5625 C 26.453125 -8.890625 20.328125 -8.8125 19.59375 -8.8125 C 12.65625 -8.8125 9.71875 -12.65625 8.8125 -15.015625 L -1.796875 -9.796875 C 4.25 1.21875 15.1875 1.3125 18.6875 1.3125 C 33.625 1.3125 39.671875 -7.1875 39.671875 -13.625 C 39.671875 -20.734375 33.546875 -24 27.09375 -25.953125 L 22.765625 -27.265625 C 18.453125 -28.5625 17.296875 -29.140625 17.296875 -31.015625 C 17.296875 -32.8125 19.1875 -34.203125 22.6875 -34.203125 C 28.40625 -34.203125 31.09375 -31.671875 33.0625 -28.5625 Z M 42.53125 -33.21875 "/></g></g></g><g fill="#18181e" fill-opacity="1"><g transform="translate(319.292313, 190.184926)"><g><path d="M 42.53125 -33.21875 C 40.484375 -37.140625 35.828125 -43.5 22.859375 -43.5 C 9.71875 -43.5 4.15625 -36.40625 4.15625 -30.28125 C 4.15625 -22.203125 11.828125 -19.421875 16.484375 -17.953125 L 20.8125 -16.5625 C 24.25 -15.515625 26.453125 -14.78125 26.453125 -12.5625 C 26.453125 -8.890625 20.328125 -8.8125 19.59375 -8.8125 C 12.65625 -8.8125 9.71875 -12.65625 8.8125 -15.015625 L -1.796875 -9.796875 C 4.25 1.21875 15.1875 1.3125 18.6875 1.3125 C 33.625 1.3125 39.671875 -7.1875 39.671875 -13.625 C 39.671875 -20.734375 33.546875 -24 27.09375 -25.953125 L 22.765625 -27.265625 C 18.453125 -28.5625 17.296875 -29.140625 17.296875 -31.015625 C 17.296875 -32.8125 19.1875 -34.203125 22.6875 -34.203125 C 28.40625 -34.203125 31.09375 -31.671875 33.0625 -28.5625 Z M 42.53125 -33.21875 "/></g></g></g><g fill="#18181e" fill-opacity="1"><g transform="translate(37.733631, 225.023066)"><g><path d="M 5.515625 -20 C 7.265625 -20 8.585938 -19.789062 9.484375 -19.375 C 10.390625 -18.957031 11.117188 -18.304688 11.671875 -17.421875 C 12.234375 -16.546875 12.515625 -15.550781 12.515625 -14.4375 C 12.515625 -12.800781 11.976562 -11.441406 10.90625 -10.359375 C 9.84375 -9.285156 8.242188 -8.75 6.109375 -8.75 L 4.25 -8.75 L 4.25 0 L 2.015625 0 L 2.015625 -20 Z M 4.25 -10.828125 L 5.4375 -10.828125 C 7.1875 -10.828125 8.429688 -11.125 9.171875 -11.71875 C 9.921875 -12.320312 10.296875 -13.226562 10.296875 -14.4375 C 10.296875 -15.65625 9.925781 -16.539062 9.1875 -17.09375 C 8.457031 -17.65625 7.164062 -17.9375 5.3125 -17.9375 L 4.25 -17.9375 Z M 4.25 -10.828125 "/></g></g></g><g fill="#18181e" fill-opacity="1"><g transform="translate(51.074236, 225.023066)"><g><path d="M 4.140625 -21.890625 L 4.140625 -11.015625 L 4.1875 -10.953125 C 4.632812 -11.554688 5.140625 -12.015625 5.703125 -12.328125 C 6.265625 -12.648438 6.945312 -12.8125 7.75 -12.8125 C 9.125 -12.8125 10.171875 -12.382812 10.890625 -11.53125 C 11.617188 -10.6875 11.984375 -9.351562 11.984375 -7.53125 L 11.984375 0 L 9.875 0 L 9.875 -7.265625 C 9.875 -8.523438 9.679688 -9.4375 9.296875 -10 C 8.921875 -10.5625 8.238281 -10.84375 7.25 -10.84375 C 6.132812 -10.84375 5.335938 -10.460938 4.859375 -9.703125 C 4.378906 -8.941406 4.140625 -7.757812 4.140625 -6.15625 L 4.140625 0 L 2.015625 0 L 2.015625 -21.890625 Z M 4.140625 -21.890625 "/></g></g></g><g fill="#18181e" fill-opacity="1"><g transform="translate(65.077886, 225.023066)"><g><path d="M 2.421875 -12.46875 L 6.8125 -3.53125 L 10.84375 -12.46875 L 13.265625 -12.46875 L 4.0625 7 L 1.640625 7 L 5.671875 -1.171875 L -0.046875 -12.46875 Z M 2.421875 -12.46875 "/></g></g></g><g fill="#18181e" fill-opacity="1"><g transform="translate(78.285858, 225.023066)"><g><path d="M 7.0625 -9.578125 C 6.863281 -9.984375 6.613281 -10.296875 6.3125 -10.515625 C 6.007812 -10.734375 5.691406 -10.84375 5.359375 -10.84375 C 4.972656 -10.84375 4.617188 -10.707031 4.296875 -10.4375 C 3.984375 -10.164062 3.828125 -9.84375 3.828125 -9.46875 C 3.828125 -8.75 4.519531 -8.132812 5.90625 -7.625 C 7.289062 -7.125 8.253906 -6.570312 8.796875 -5.96875 C 9.335938 -5.363281 9.609375 -4.613281 9.609375 -3.71875 C 9.609375 -3.019531 9.445312 -2.367188 9.125 -1.765625 C 8.8125 -1.171875 8.320312 -0.671875 7.65625 -0.265625 C 6.988281 0.140625 6.234375 0.34375 5.390625 0.34375 C 4.359375 0.34375 3.453125 0.0703125 2.671875 -0.46875 C 1.898438 -1.019531 1.335938 -1.800781 0.984375 -2.8125 L 2.859375 -3.609375 C 3.179688 -2.867188 3.539062 -2.351562 3.9375 -2.0625 C 4.332031 -1.769531 4.820312 -1.625 5.40625 -1.625 C 6.007812 -1.625 6.492188 -1.800781 6.859375 -2.15625 C 7.234375 -2.519531 7.421875 -2.976562 7.421875 -3.53125 C 7.421875 -3.988281 7.253906 -4.390625 6.921875 -4.734375 C 6.585938 -5.078125 5.972656 -5.425781 5.078125 -5.78125 C 4.179688 -6.132812 3.488281 -6.488281 3 -6.84375 C 2.21875 -7.40625 1.816406 -8.21875 1.796875 -9.28125 C 1.796875 -10.269531 2.148438 -11.101562 2.859375 -11.78125 C 3.566406 -12.46875 4.453125 -12.8125 5.515625 -12.8125 C 6.191406 -12.8125 6.835938 -12.597656 7.453125 -12.171875 C 8.078125 -11.753906 8.535156 -11.195312 8.828125 -10.5 Z M 7.0625 -9.578125 "/></g></g></g><g fill="#18181e" fill-opacity="1"><g transform="translate(88.868154, 225.023066)"><g><path d="M 4.53125 -12.46875 L 4.53125 0 L 2.421875 0 L 2.421875 -12.46875 Z M 1.96875 -17.21875 C 1.96875 -17.601562 2.117188 -17.941406 2.421875 -18.234375 C 2.734375 -18.523438 3.082031 -18.671875 3.46875 -18.671875 C 3.875 -18.671875 4.226562 -18.523438 4.53125 -18.234375 C 4.832031 -17.941406 4.984375 -17.601562 4.984375 -17.21875 C 4.984375 -16.757812 4.832031 -16.382812 4.53125 -16.09375 C 4.226562 -15.800781 3.875 -15.65625 3.46875 -15.65625 C 3.0625 -15.65625 2.707031 -15.796875 2.40625 -16.078125 C 2.113281 -16.359375 1.96875 -16.738281 1.96875 -17.21875 Z M 1.96875 -17.21875 "/></g></g></g><g fill="#18181e" fill-opacity="1"><g transform="translate(95.81694, 225.023066)"><g><path d="M 11.28125 -8.75 L 11.21875 -8.75 C 10.757812 -9.375 10.195312 -9.878906 9.53125 -10.265625 C 8.875 -10.648438 8.144531 -10.84375 7.34375 -10.84375 C 6.101562 -10.84375 5.054688 -10.390625 4.203125 -9.484375 C 3.359375 -8.585938 2.9375 -7.503906 2.9375 -6.234375 C 2.9375 -4.960938 3.34375 -3.875 4.15625 -2.96875 C 4.976562 -2.070312 6.007812 -1.625 7.25 -1.625 C 8.144531 -1.625 8.914062 -1.8125 9.5625 -2.1875 C 10.207031 -2.570312 10.785156 -3.097656 11.296875 -3.765625 L 11.359375 -3.765625 L 11.359375 -0.921875 C 10.773438 -0.515625 10.15625 -0.203125 9.5 0.015625 C 8.84375 0.234375 8.144531 0.34375 7.40625 0.34375 C 6.21875 0.34375 5.101562 0.0625 4.0625 -0.5 C 3.03125 -1.070312 2.222656 -1.863281 1.640625 -2.875 C 1.054688 -3.894531 0.765625 -5.015625 0.765625 -6.234375 C 0.765625 -7.378906 1.050781 -8.460938 1.625 -9.484375 C 2.207031 -10.503906 3.019531 -11.3125 4.0625 -11.90625 C 5.101562 -12.507812 6.222656 -12.8125 7.421875 -12.8125 C 8.066406 -12.8125 8.691406 -12.722656 9.296875 -12.546875 C 9.910156 -12.367188 10.570312 -12.039062 11.28125 -11.5625 Z M 11.28125 -8.75 "/></g></g></g><g fill="#18181e" fill-opacity="1"><g transform="translate(108.441436, 225.023066)"><g><path d="M 11.28125 -10.6875 L 11.28125 -12.46875 L 13.390625 -12.46875 L 13.390625 0 L 11.28125 0 L 11.28125 -1.71875 L 11.21875 -1.71875 C 10.125 -0.34375 8.691406 0.34375 6.921875 0.34375 C 5.191406 0.34375 3.765625 -0.289062 2.640625 -1.5625 C 1.515625 -2.832031 0.953125 -4.378906 0.953125 -6.203125 C 0.953125 -8.117188 1.515625 -9.695312 2.640625 -10.9375 C 3.773438 -12.1875 5.210938 -12.8125 6.953125 -12.8125 C 7.816406 -12.8125 8.613281 -12.625 9.34375 -12.25 C 10.082031 -11.882812 10.707031 -11.363281 11.21875 -10.6875 Z M 7.1875 -10.84375 C 6.050781 -10.84375 5.085938 -10.410156 4.296875 -9.546875 C 3.515625 -8.679688 3.125 -7.625 3.125 -6.375 C 3.125 -5.019531 3.507812 -3.890625 4.28125 -2.984375 C 5.050781 -2.078125 6.03125 -1.625 7.21875 -1.625 C 8.46875 -1.625 9.472656 -2.054688 10.234375 -2.921875 C 10.992188 -3.785156 11.375 -4.925781 11.375 -6.34375 C 11.375 -7.632812 10.984375 -8.707031 10.203125 -9.5625 C 9.429688 -10.414062 8.425781 -10.84375 7.1875 -10.84375 Z M 7.1875 -10.84375 "/></g></g></g><g fill="#18181e" fill-opacity="1"><g transform="translate(123.74467, 225.023066)"><g><path d="M 4.078125 -21.890625 L 4.078125 0 L 1.96875 0 L 1.96875 -21.890625 Z M 4.078125 -21.890625 "/></g></g></g><g fill="#18181e" fill-opacity="1"><g transform="translate(129.765169, 225.023066)"><g/></g></g><g fill="#18181e" fill-opacity="1"><g transform="translate(137.933968, 225.023066)"><g><path d="M 12.203125 -20 L 12.203125 -17.9375 L 7.328125 -17.9375 L 7.328125 0 L 5.09375 0 L 5.09375 -17.9375 L 0.265625 -17.9375 L 0.265625 -20 Z M 12.203125 -20 "/></g></g></g><g fill="#18181e" fill-opacity="1"><g transform="translate(150.399324, 225.023066)"><g><path d="M 4.140625 -21.890625 L 4.140625 -11.015625 L 4.1875 -10.953125 C 4.632812 -11.554688 5.140625 -12.015625 5.703125 -12.328125 C 6.265625 -12.648438 6.945312 -12.8125 7.75 -12.8125 C 9.125 -12.8125 10.171875 -12.382812 10.890625 -11.53125 C 11.617188 -10.6875 11.984375 -9.351562 11.984375 -7.53125 L 11.984375 0 L 9.875 0 L 9.875 -7.265625 C 9.875 -8.523438 9.679688 -9.4375 9.296875 -10 C 8.921875 -10.5625 8.238281 -10.84375 7.25 -10.84375 C 6.132812 -10.84375 5.335938 -10.460938 4.859375 -9.703125 C 4.378906 -8.941406 4.140625 -7.757812 4.140625 -6.15625 L 4.140625 0 L 2.015625 0 L 2.015625 -21.890625 Z M 4.140625 -21.890625 "/></g></g></g><g fill="#18181e" fill-opacity="1"><g transform="translate(164.402974, 225.023066)"><g><path d="M 12.875 -5.78125 L 3.078125 -5.78125 C 3.109375 -4.539062 3.515625 -3.535156 4.296875 -2.765625 C 5.078125 -2.003906 6.03125 -1.625 7.15625 -1.625 C 7.957031 -1.625 8.660156 -1.828125 9.265625 -2.234375 C 9.878906 -2.640625 10.441406 -3.289062 10.953125 -4.1875 L 12.765625 -3.15625 C 12.160156 -2.039062 11.367188 -1.175781 10.390625 -0.5625 C 9.410156 0.0390625 8.28125 0.34375 7 0.34375 C 5.78125 0.34375 4.703125 0.0507812 3.765625 -0.53125 C 2.828125 -1.113281 2.113281 -1.894531 1.625 -2.875 C 1.144531 -3.851562 0.90625 -4.921875 0.90625 -6.078125 C 0.90625 -7.347656 1.144531 -8.492188 1.625 -9.515625 C 2.113281 -10.546875 2.816406 -11.351562 3.734375 -11.9375 C 4.660156 -12.519531 5.734375 -12.8125 6.953125 -12.8125 C 8.140625 -12.8125 9.1875 -12.523438 10.09375 -11.953125 C 11.007812 -11.378906 11.703125 -10.585938 12.171875 -9.578125 C 12.648438 -8.566406 12.890625 -7.4375 12.890625 -6.1875 C 12.890625 -6.0625 12.882812 -5.925781 12.875 -5.78125 Z M 10.640625 -7.59375 C 10.460938 -8.5625 10.023438 -9.34375 9.328125 -9.9375 C 8.640625 -10.539062 7.859375 -10.84375 6.984375 -10.84375 C 6.109375 -10.84375 5.289062 -10.53125 4.53125 -9.90625 C 3.769531 -9.28125 3.320312 -8.507812 3.1875 -7.59375 Z M 10.640625 -7.59375 "/></g></g></g><g fill="#18181e" fill-opacity="1"><g transform="translate(178.167914, 225.023066)"><g><path d="M 7.75 -10.296875 C 7.53125 -10.453125 7.328125 -10.582031 7.140625 -10.6875 C 6.960938 -10.789062 6.738281 -10.84375 6.46875 -10.84375 C 5.675781 -10.84375 5.070312 -10.488281 4.65625 -9.78125 C 4.238281 -9.082031 4.03125 -7.945312 4.03125 -6.375 L 4.03125 0 L 1.90625 0 L 1.90625 -12.46875 L 4.03125 -12.46875 L 4.03125 -11.109375 L 4.078125 -11.109375 C 4.597656 -11.804688 5.054688 -12.265625 5.453125 -12.484375 C 5.847656 -12.703125 6.3125 -12.8125 6.84375 -12.8125 C 7.164062 -12.8125 7.488281 -12.757812 7.8125 -12.65625 C 8.132812 -12.550781 8.445312 -12.410156 8.75 -12.234375 Z M 7.75 -10.296875 "/></g></g></g><g fill="#18181e" fill-opacity="1"><g transform="translate(187.052799, 225.023066)"><g><path d="M 11.28125 -10.6875 L 11.28125 -12.46875 L 13.390625 -12.46875 L 13.390625 0 L 11.28125 0 L 11.28125 -1.71875 L 11.21875 -1.71875 C 10.125 -0.34375 8.691406 0.34375 6.921875 0.34375 C 5.191406 0.34375 3.765625 -0.289062 2.640625 -1.5625 C 1.515625 -2.832031 0.953125 -4.378906 0.953125 -6.203125 C 0.953125 -8.117188 1.515625 -9.695312 2.640625 -10.9375 C 3.773438 -12.1875 5.210938 -12.8125 6.953125 -12.8125 C 7.816406 -12.8125 8.613281 -12.625 9.34375 -12.25 C 10.082031 -11.882812 10.707031 -11.363281 11.21875 -10.6875 Z M 7.1875 -10.84375 C 6.050781 -10.84375 5.085938 -10.410156 4.296875 -9.546875 C 3.515625 -8.679688 3.125 -7.625 3.125 -6.375 C 3.125 -5.019531 3.507812 -3.890625 4.28125 -2.984375 C 5.050781 -2.078125 6.03125 -1.625 7.21875 -1.625 C 8.46875 -1.625 9.472656 -2.054688 10.234375 -2.921875 C 10.992188 -3.785156 11.375 -4.925781 11.375 -6.34375 C 11.375 -7.632812 10.984375 -8.707031 10.203125 -9.5625 C 9.429688 -10.414062 8.425781 -10.84375 7.1875 -10.84375 Z M 7.1875 -10.84375 "/></g></g></g><g fill="#18181e" fill-opacity="1"><g transform="translate(202.356033, 225.023066)"><g><path d="M 4.078125 -1.75 L 4.03125 -1.75 L 4.03125 7 L 1.90625 7 L 1.90625 -12.46875 L 4.03125 -12.46875 L 4.03125 -10.6875 L 4.078125 -10.6875 C 4.597656 -11.382812 5.226562 -11.910156 5.96875 -12.265625 C 6.707031 -12.628906 7.515625 -12.8125 8.390625 -12.8125 C 9.503906 -12.8125 10.519531 -12.519531 11.4375 -11.9375 C 12.351562 -11.351562 13.066406 -10.550781 13.578125 -9.53125 C 14.097656 -8.519531 14.359375 -7.410156 14.359375 -6.203125 C 14.359375 -5.003906 14.109375 -3.894531 13.609375 -2.875 C 13.117188 -1.863281 12.40625 -1.070312 11.46875 -0.5 C 10.539062 0.0625 9.503906 0.34375 8.359375 0.34375 C 7.503906 0.34375 6.707031 0.164062 5.96875 -0.1875 C 5.226562 -0.539062 4.597656 -1.0625 4.078125 -1.75 Z M 7.953125 -10.84375 C 7.265625 -10.84375 6.609375 -10.65625 5.984375 -10.28125 C 5.367188 -9.914062 4.867188 -9.378906 4.484375 -8.671875 C 4.109375 -7.960938 3.921875 -7.195312 3.921875 -6.375 C 3.921875 -5.039062 4.296875 -3.914062 5.046875 -3 C 5.804688 -2.082031 6.796875 -1.625 8.015625 -1.625 C 8.847656 -1.625 9.582031 -1.820312 10.21875 -2.21875 C 10.851562 -2.613281 11.335938 -3.171875 11.671875 -3.890625 C 12.003906 -4.617188 12.171875 -5.4375 12.171875 -6.34375 C 12.171875 -7.664062 11.78125 -8.742188 11 -9.578125 C 10.226562 -10.421875 9.210938 -10.84375 7.953125 -10.84375 Z M 7.953125 -10.84375 "/></g></g></g><g fill="#18181e" fill-opacity="1"><g transform="translate(217.659267, 225.023066)"><g><path d="M 2.421875 -12.46875 L 6.8125 -3.53125 L 10.84375 -12.46875 L 13.265625 -12.46875 L 4.0625 7 L 1.640625 7 L 5.671875 -1.171875 L -0.046875 -12.46875 Z M 2.421875 -12.46875 "/></g></g></g><g fill="#18181e" fill-opacity="1"><g transform="translate(230.867239, 225.023066)"><g/></g></g><g fill="#18181e" fill-opacity="1"><g transform="translate(239.036039, 225.023066)"><g><path d="M 8.59375 -20.859375 L 8.59375 5.671875 L 6.53125 5.671875 L 6.53125 -20.859375 Z M 8.59375 -20.859375 "/></g></g></g><g fill="#18181e" fill-opacity="1"><g transform="translate(254.153601, 225.023066)"><g/></g></g><g fill="#18181e" fill-opacity="1"><g transform="translate(262.322401, 225.023066)"><g><path d="M 11.109375 -20 L 11.109375 -17.9375 L 4.25 -17.9375 L 4.25 -11.984375 L 10.90625 -11.984375 L 10.90625 -9.921875 L 4.25 -9.921875 L 4.25 0 L 2.015625 0 L 2.015625 -20 Z M 11.109375 -20 "/></g></g></g><g fill="#18181e" fill-opacity="1"><g transform="translate(274.999936, 225.023066)"><g><path d="M 4.53125 -12.46875 L 4.53125 0 L 2.421875 0 L 2.421875 -12.46875 Z M 1.96875 -17.21875 C 1.96875 -17.601562 2.117188 -17.941406 2.421875 -18.234375 C 2.734375 -18.523438 3.082031 -18.671875 3.46875 -18.671875 C 3.875 -18.671875 4.226562 -18.523438 4.53125 -18.234375 C 4.832031 -17.941406 4.984375 -17.601562 4.984375 -17.21875 C 4.984375 -16.757812 4.832031 -16.382812 4.53125 -16.09375 C 4.226562 -15.800781 3.875 -15.65625 3.46875 -15.65625 C 3.0625 -15.65625 2.707031 -15.796875 2.40625 -16.078125 C 2.113281 -16.359375 1.96875 -16.738281 1.96875 -17.21875 Z M 1.96875 -17.21875 "/></g></g></g><g fill="#18181e" fill-opacity="1"><g transform="translate(281.948722, 225.023066)"><g><path d="M 4.25 -16.953125 L 4.25 -12.46875 L 6.46875 -12.46875 L 6.46875 -10.5 L 4.25 -10.5 L 4.25 0 L 2.125 0 L 2.125 -10.5 L 0.828125 -10.5 L 0.828125 -12.46875 L 2.125 -12.46875 L 2.125 -16.953125 Z M 4.25 -16.953125 "/></g></g></g><g fill="#18181e" fill-opacity="1"><g transform="translate(288.314009, 225.023066)"><g><path d="M 11.984375 0 L 9.875 0 L 9.875 -7.265625 C 9.875 -8.523438 9.679688 -9.4375 9.296875 -10 C 8.921875 -10.5625 8.238281 -10.84375 7.25 -10.84375 C 6.113281 -10.84375 5.3125 -10.453125 4.84375 -9.671875 C 4.375 -8.898438 4.140625 -7.71875 4.140625 -6.125 L 4.140625 0 L 2.015625 0 L 2.015625 -12.46875 L 4.140625 -12.46875 L 4.140625 -10.953125 L 4.1875 -10.953125 C 4.632812 -11.554688 5.144531 -12.015625 5.71875 -12.328125 C 6.289062 -12.648438 6.96875 -12.8125 7.75 -12.8125 C 9.144531 -12.8125 10.195312 -12.378906 10.90625 -11.515625 C 11.625 -10.660156 11.984375 -9.332031 11.984375 -7.53125 Z M 11.984375 0 "/></g></g></g><g fill="#18181e" fill-opacity="1"><g transform="translate(302.31766, 225.023066)"><g><path d="M 12.875 -5.78125 L 3.078125 -5.78125 C 3.109375 -4.539062 3.515625 -3.535156 4.296875 -2.765625 C 5.078125 -2.003906 6.03125 -1.625 7.15625 -1.625 C 7.957031 -1.625 8.660156 -1.828125 9.265625 -2.234375 C 9.878906 -2.640625 10.441406 -3.289062 10.953125 -4.1875 L 12.765625 -3.15625 C 12.160156 -2.039062 11.367188 -1.175781 10.390625 -0.5625 C 9.410156 0.0390625 8.28125 0.34375 7 0.34375 C 5.78125 0.34375 4.703125 0.0507812 3.765625 -0.53125 C 2.828125 -1.113281 2.113281 -1.894531 1.625 -2.875 C 1.144531 -3.851562 0.90625 -4.921875 0.90625 -6.078125 C 0.90625 -7.347656 1.144531 -8.492188 1.625 -9.515625 C 2.113281 -10.546875 2.816406 -11.351562 3.734375 -11.9375 C 4.660156 -12.519531 5.734375 -12.8125 6.953125 -12.8125 C 8.140625 -12.8125 9.1875 -12.523438 10.09375 -11.953125 C 11.007812 -11.378906 11.703125 -10.585938 12.171875 -9.578125 C 12.648438 -8.566406 12.890625 -7.4375 12.890625 -6.1875 C 12.890625 -6.0625 12.882812 -5.925781 12.875 -5.78125 Z M 10.640625 -7.59375 C 10.460938 -8.5625 10.023438 -9.34375 9.328125 -9.9375 C 8.640625 -10.539062 7.859375 -10.84375 6.984375 -10.84375 C 6.109375 -10.84375 5.289062 -10.53125 4.53125 -9.90625 C 3.769531 -9.28125 3.320312 -8.507812 3.1875 -7.59375 Z M 10.640625 -7.59375 "/></g></g></g><g fill="#18181e" fill-opacity="1"><g transform="translate(316.082599, 225.023066)"><g><path d="M 7.0625 -9.578125 C 6.863281 -9.984375 6.613281 -10.296875 6.3125 -10.515625 C 6.007812 -10.734375 5.691406 -10.84375 5.359375 -10.84375 C 4.972656 -10.84375 4.617188 -10.707031 4.296875 -10.4375 C 3.984375 -10.164062 3.828125 -9.84375 3.828125 -9.46875 C 3.828125 -8.75 4.519531 -8.132812 5.90625 -7.625 C 7.289062 -7.125 8.253906 -6.570312 8.796875 -5.96875 C 9.335938 -5.363281 9.609375 -4.613281 9.609375 -3.71875 C 9.609375 -3.019531 9.445312 -2.367188 9.125 -1.765625 C 8.8125 -1.171875 8.320312 -0.671875 7.65625 -0.265625 C 6.988281 0.140625 6.234375 0.34375 5.390625 0.34375 C 4.359375 0.34375 3.453125 0.0703125 2.671875 -0.46875 C 1.898438 -1.019531 1.335938 -1.800781 0.984375 -2.8125 L 2.859375 -3.609375 C 3.179688 -2.867188 3.539062 -2.351562 3.9375 -2.0625 C 4.332031 -1.769531 4.820312 -1.625 5.40625 -1.625 C 6.007812 -1.625 6.492188 -1.800781 6.859375 -2.15625 C 7.234375 -2.519531 7.421875 -2.976562 7.421875 -3.53125 C 7.421875 -3.988281 7.253906 -4.390625 6.921875 -4.734375 C 6.585938 -5.078125 5.972656 -5.425781 5.078125 -5.78125 C 4.179688 -6.132812 3.488281 -6.488281 3 -6.84375 C 2.21875 -7.40625 1.816406 -8.21875 1.796875 -9.28125 C 1.796875 -10.269531 2.148438 -11.101562 2.859375 -11.78125 C 3.566406 -12.46875 4.453125 -12.8125 5.515625 -12.8125 C 6.191406 -12.8125 6.835938 -12.597656 7.453125 -12.171875 C 8.078125 -11.753906 8.535156 -11.195312 8.828125 -10.5 Z M 7.0625 -9.578125 "/></g></g></g><g fill="#18181e" fill-opacity="1"><g transform="translate(326.664896, 225.023066)"><g><path d="M 7.0625 -9.578125 C 6.863281 -9.984375 6.613281 -10.296875 6.3125 -10.515625 C 6.007812 -10.734375 5.691406 -10.84375 5.359375 -10.84375 C 4.972656 -10.84375 4.617188 -10.707031 4.296875 -10.4375 C 3.984375 -10.164062 3.828125 -9.84375 3.828125 -9.46875 C 3.828125 -8.75 4.519531 -8.132812 5.90625 -7.625 C 7.289062 -7.125 8.253906 -6.570312 8.796875 -5.96875 C 9.335938 -5.363281 9.609375 -4.613281 9.609375 -3.71875 C 9.609375 -3.019531 9.445312 -2.367188 9.125 -1.765625 C 8.8125 -1.171875 8.320312 -0.671875 7.65625 -0.265625 C 6.988281 0.140625 6.234375 0.34375 5.390625 0.34375 C 4.359375 0.34375 3.453125 0.0703125 2.671875 -0.46875 C 1.898438 -1.019531 1.335938 -1.800781 0.984375 -2.8125 L 2.859375 -3.609375 C 3.179688 -2.867188 3.539062 -2.351562 3.9375 -2.0625 C 4.332031 -1.769531 4.820312 -1.625 5.40625 -1.625 C 6.007812 -1.625 6.492188 -1.800781 6.859375 -2.15625 C 7.234375 -2.519531 7.421875 -2.976562 7.421875 -3.53125 C 7.421875 -3.988281 7.253906 -4.390625 6.921875 -4.734375 C 6.585938 -5.078125 5.972656 -5.425781 5.078125 -5.78125 C 4.179688 -6.132812 3.488281 -6.488281 3 -6.84375 C 2.21875 -7.40625 1.816406 -8.21875 1.796875 -9.28125 C 1.796875 -10.269531 2.148438 -11.101562 2.859375 -11.78125 C 3.566406 -12.46875 4.453125 -12.8125 5.515625 -12.8125 C 6.191406 -12.8125 6.835938 -12.597656 7.453125 -12.171875 C 8.078125 -11.753906 8.535156 -11.195312 8.828125 -10.5 Z M 7.0625 -9.578125 "/></g></g></g></svg>